<?xml version="1.0" standalone="no"?>
<!DOCTYPE svg PUBLIC "-//W3C//DTD SVG 20010904//EN"
 "http://www.w3.org/TR/2001/REC-SVG-20010904/DTD/svg10.dtd">
<svg version="1.0" xmlns="http://www.w3.org/2000/svg"
 width="282.000000pt" height="282.000000pt" viewBox="0 0 282.000000 282.000000"
 preserveAspectRatio="xMidYMid meet">
<metadata>
Created by potrace 1.11, written by Peter Selinger 2001-2013
</metadata>
<g transform="translate(0.000000,282.000000) scale(0.100000,-0.100000)"
fill="#000000" stroke="none">
<path d="M1196 2689 c-188 -28 -418 -123 -576 -239 -262 -193 -442 -481 -507
-808 -25 -129 -23 -356 6 -489 55 -262 169 -472 355 -659 251 -251 554 -376
911 -377 276 -1 496 65 725 217 257 172 453 449 531 751 41 159 51 368 25 526
-44 263 -157 493 -338 685 -196 206 -449 342 -727 388 -101 17 -305 20 -405 5z
m851 -231 c16 -17 16 -19 0 -35 -17 -17 -61 -18 -657 -18 -588 0 -641 1 -656
17 -14 14 -15 20 -5 32 7 8 22 17 34 19 12 3 302 4 644 3 578 -1 624 -2 640
-18z m290 -240 c16 -17 16 -19 0 -35 -17 -17 -74 -18 -927 -18 -842 0 -911 1
-926 17 -14 14 -15 20 -5 32 7 8 22 17 34 19 12 3 423 4 914 3 836 -1 893 -2
910 -18z m120 -240 c16 -17 16 -19 0 -35 -17 -17 -80 -18 -1047 -18 -955 0
-1031 1 -1046 17 -14 14 -15 20 -5 32 7 8 22 17 34 19 12 3 477 4 1034 3 950
-1 1013 -2 1030 -18z m-43 -229 c21 -6 58 -29 82 -51 42 -38 44 -44 44 -94 0
-63 -7 -66 -71 -29 -31 17 -59 25 -94 25 -105 0 -158 -71 -159 -212 0 -105 22
-154 77 -169 44 -12 121 2 154 26 26 21 41 18 71 -12 37 -37 38 -105 4 -134
-37 -29 -99 -42 -193 -37 -71 3 -93 9 -133 32 -59 35 -132 126 -151 190 -19
64 -19 208 0 274 16 54 63 123 106 154 60 45 177 61 263 37z m-2051 -27 c22
-23 34 -58 67 -202 22 -96 42 -179 44 -185 1 -5 24 80 51 190 26 110 52 206
58 213 5 7 33 12 66 12 47 0 61 -5 87 -28 28 -24 36 -44 75 -204 24 -98 46
-178 49 -178 4 0 26 87 50 193 24 105 48 198 53 205 5 7 31 12 59 12 40 0 55
-5 80 -28 l30 -29 -77 -294 c-43 -162 -82 -302 -87 -311 -7 -15 -23 -18 -87
-18 -77 0 -80 1 -108 33 -22 26 -36 63 -63 170 -19 75 -37 137 -40 137 -3 0
-22 -71 -43 -158 -21 -87 -43 -164 -49 -170 -7 -7 -42 -12 -85 -12 -66 0 -75
2 -98 28 -15 15 -30 36 -35 47 -22 56 -152 576 -147 590 5 11 21 15 65 15 51
0 62 -4 85 -28z m1044 -9 c34 -33 47 -59 98 -201 32 -89 61 -159 65 -155 4 4
35 85 70 178 34 94 72 180 83 193 18 19 30 22 100 22 77 0 80 -1 113 -34 l34
-34 -2 -304 -3 -303 -58 -3 c-54 -3 -61 -1 -83 25 -23 26 -24 35 -26 201 l-3
173 -70 -198 -70 -198 -60 -3 c-88 -4 -100 12 -179 238 l-65 185 -3 -210 -3
-210 -58 -3 c-54 -3 -61 -1 -83 25 l-24 28 0 301 c0 220 3 303 12 312 7 7 43
12 93 12 81 0 82 -1 122 -37z m1050 -836 c16 -16 16 -18 0 -35 -17 -16 -80
-17 -1047 -17 -955 0 -1031 1 -1046 17 -14 14 -15 20 -5 32 7 8 22 17 34 19
12 3 477 4 1034 3 950 -1 1013 -2 1030 -19z m-120 -240 c16 -16 16 -18 0 -35
-17 -16 -74 -17 -927 -17 -842 0 -911 1 -926 17 -14 14 -15 20 -5 32 7 8 22
17 34 19 12 3 423 4 914 3 836 -1 893 -2 910 -19z m-290 -239 c16 -17 16 -19
0 -35 -17 -17 -61 -18 -657 -18 -588 0 -641 1 -656 17 -14 14 -15 20 -5 32 7
8 22 17 34 19 12 3 302 4 644 3 578 -1 624 -2 640 -18z"/>
</g>
</svg>
